<svg width="600" height="600" viewBox="0 0 600 600" version="1.1" xmlns="http://www.w3.org/2000/svg" xmlns:xlink="http://www.w3.org/1999/xlink">
<title>lindahl studios logo</title>
<desc>Created using Figma</desc>
<g id="Canvas" transform="translate(300 300)">
<rect x="-300" y="-300" width="600" height="600" fill="#E5E5E5"/>
<g id="Rectangle">
<use xlink:href="#path0_fill" transform="translate(-300 -300)" fill="#42A0F4"/>
</g>
<g id="Rectangle 2">
<use xlink:href="#path1_fill" transform="translate(-265 -270)" fill="#FFFFFF"/>
</g>
<g id="Rectangle 3">
<use xlink:href="#path2_fill" transform="translate(-245 -250)" fill="#42A0F4"/>
</g>
<g id="lindahl">
<use xlink:href="#path3_fill" transform="translate(-300 -106)" fill="#F2F2F2"/>
</g>
<g id="Line">
<use xlink:href="#path4_stroke" transform="matrix(1 -2.44929e-16 2.44929e-16 1 -220 22)" fill="#F2F2F2"/>
</g>
<g id="studios">
<use xlink:href="#path5_fill" transform="translate(-300 44)" fill="#F2F2F2"/>
</g>
<g id="Polygon">
<use xlink:href="#path6_fill" transform="matrix(-1 -7.73619e-17 7.73619e-17 -1 30 44)" fill="#F2F2F2"/>
</g>
</g>
<defs>
<path id="path0_fill" d="M 0 0L 600 0L 600 600L 0 600L 0 0Z"/>
<path id="path1_fill" d="M 0 0L 530 0L 530 530L 0 530L 0 0Z"/>
<path id="path2_fill" d="M 0 0L 490 0L 490 490L 0 490L 0 0Z"/>
<path id="path3_fill" d="M 102.35 105L 120.05 105L 120.05 19L 102.35 19L 102.35 105ZM 148.137 22C 142.337 22 137.637 26.7 137.637 32.5C 137.637 38.3 142.337 43 148.137 43C 153.937 43 158.637 38.3 158.637 32.5C 158.637 26.7 153.937 22 148.137 22ZM 139.037 53.7L 156.737 53.7L 156.737 105L 139.037 105L 139.037 53.7ZM 176.213 105L 193.913 105L 193.913 76C 193.913 70.9 199.113 66 204.413 66C 210.113 66 213.613 70.9 213.613 76L 213.613 105L 231.313 105L 231.313 71.2C 231.313 56.9 218.213 52.2 208.813 52.2C 203.213 52.2 198.113 55.1 194.113 59.1L 193.913 59.1L 193.913 53.7L 176.213 53.7L 176.213 105ZM 245.626 79.4C 245.626 94.4 256.126 106.5 271.126 106.5C 278.126 106.5 284.126 103.4 287.926 99.2L 288.126 99.2L 288.126 105L 305.626 105L 305.626 19L 287.926 19L 287.926 58.6C 283.726 54.5 278.026 52.2 271.126 52.2C 256.126 52.2 245.626 64.4 245.626 79.4ZM 264.426 79.4C 264.426 72.3 269.726 67.3 276.426 67.3C 283.026 67.3 288.326 72.3 288.326 79.4C 288.326 86.4 283.326 91.4 276.426 91.4C 269.226 91.4 264.426 86.4 264.426 79.4ZM 320.888 79.4C 320.888 94.4 331.388 106.5 346.388 106.5C 353.388 106.5 359.388 103.4 363.188 99.2L 363.388 99.2L 363.388 105L 380.888 105L 380.888 53.7L 363.188 53.7L 363.188 58.6C 358.988 54.5 353.288 52.2 346.388 52.2C 331.388 52.2 320.888 64.4 320.888 79.4ZM 339.688 79.4C 339.688 72.3 344.988 67.3 351.688 67.3C 358.288 67.3 363.588 72.3 363.588 79.4C 363.588 86.4 358.588 91.4 351.688 91.4C 344.488 91.4 339.688 86.4 339.688 79.4ZM 399.85 105L 417.55 105L 417.55 76C 417.55 70.9 422.75 66 428.05 66C 433.75 66 437.25 70.9 437.25 76L 437.25 105L 454.95 105L 454.95 71.2C 454.95 56.9 441.85 52.2 432.45 52.2C 426.85 52.2 421.75 55.1 417.75 59.1L 417.55 59.1L 417.55 19L 399.85 19L 399.85 105ZM 472.963 105L 490.663 105L 490.663 19L 472.963 19L 472.963 105Z"/>
<path id="path4_stroke" d="M 0 0L 440 0L 440 -10L 0 -10L 0 0Z"/>
<path id="path5_fill" d="M 208.703 56.6C 205.663 56.6 203.023 56 200.783 54.8C 198.543 53.6 197.003 51.86 196.163 49.58L 198.623 47.96C 199.223 49.96 200.443 51.46 202.283 52.46C 204.123 53.46 206.383 53.96 209.063 53.96C 211.783 53.96 213.903 53.44 215.423 52.4C 216.983 51.36 217.763 49.98 217.763 48.26C 217.763 46.78 217.103 45.6 215.783 44.72C 214.463 43.84 212.143 43.1 208.823 42.5C 204.623 41.74 201.663 40.72 199.943 39.44C 198.223 38.16 197.363 36.34 197.363 33.98C 197.363 32.42 197.843 30.98 198.803 29.66C 199.763 28.34 201.123 27.3 202.883 26.54C 204.643 25.78 206.643 25.4 208.883 25.4C 212.043 25.4 214.563 26 216.443 27.2C 218.363 28.4 219.683 30.24 220.403 32.72L 217.823 34.22C 216.703 30.1 213.723 28.04 208.883 28.04C 207.283 28.04 205.823 28.3 204.503 28.82C 203.223 29.34 202.203 30.04 201.443 30.92C 200.723 31.76 200.363 32.68 200.363 33.68C 200.363 35.32 201.043 36.6 202.403 37.52C 203.763 38.44 206.163 39.2 209.603 39.8C 213.683 40.48 216.563 41.46 218.243 42.74C 219.923 44.02 220.763 45.82 220.763 48.14C 220.763 50.7 219.663 52.76 217.463 54.32C 215.303 55.84 212.383 56.6 208.703 56.6ZM 246.976 54.08C 246.176 54.88 245.196 55.5 244.036 55.94C 242.876 56.38 241.596 56.6 240.196 56.6C 237.756 56.6 235.836 55.94 234.436 54.62C 233.076 53.26 232.396 51.22 232.396 48.5L 232.396 28.58L 226.396 28.58L 226.396 26L 232.396 26L 232.396 18.5L 235.396 17.66L 235.396 26L 246.676 26L 246.676 28.58L 235.396 28.58L 235.396 48.08C 235.396 49.96 235.836 51.4 236.716 52.4C 237.636 53.36 238.956 53.84 240.676 53.84C 242.676 53.84 244.416 53.1 245.896 51.62L 246.976 54.08ZM 279.133 26L 279.133 56L 276.433 56L 276.313 50.06C 275.313 52.18 273.813 53.8 271.813 54.92C 269.813 56.04 267.453 56.6 264.733 56.6C 261.453 56.6 258.833 55.7 256.873 53.9C 254.913 52.06 253.933 49.36 253.933 45.8L 253.933 26L 256.933 26L 256.933 45.08C 256.933 51 259.693 53.96 265.213 53.96C 267.413 53.96 269.333 53.48 270.973 52.52C 272.653 51.56 273.933 50.26 274.813 48.62C 275.693 46.98 276.133 45.18 276.133 43.22L 276.133 26L 279.133 26ZM 316.86 12.2L 316.86 56L 314.16 56L 313.98 49.28C 313.14 51.56 311.74 53.36 309.78 54.68C 307.82 55.96 305.5 56.6 302.82 56.6C 298.58 56.6 295.22 55.22 292.74 52.46C 290.3 49.7 289.08 45.88 289.08 41C 289.08 36.12 290.3 32.3 292.74 29.54C 295.22 26.78 298.58 25.4 302.82 25.4C 305.42 25.4 307.68 26.02 309.6 27.26C 311.52 28.5 312.94 30.2 313.86 32.36L 313.86 12.2L 316.86 12.2ZM 303.18 53.96C 306.3 53.96 308.82 52.92 310.74 50.84C 312.66 48.72 313.7 45.86 313.86 42.26L 313.86 39.74C 313.66 36.14 312.6 33.3 310.68 31.22C 308.8 29.1 306.3 28.04 303.18 28.04C 299.7 28.04 296.98 29.2 295.02 31.52C 293.06 33.8 292.08 36.96 292.08 41C 292.08 45.04 293.06 48.22 295.02 50.54C 296.98 52.82 299.7 53.96 303.18 53.96ZM 330.262 20.18C 329.502 20.18 328.882 19.96 328.402 19.52C 327.962 19.04 327.742 18.42 327.742 17.66C 327.742 16.9 327.962 16.3 328.402 15.86C 328.882 15.38 329.502 15.14 330.262 15.14C 331.022 15.14 331.622 15.38 332.062 15.86C 332.542 16.3 332.782 16.9 332.782 17.66C 332.782 18.42 332.542 19.04 332.062 19.52C 331.622 19.96 331.022 20.18 330.262 20.18ZM 331.762 56L 328.762 56L 328.762 26L 331.762 26L 331.762 56ZM 356.033 25.4C 360.473 25.4 363.953 26.8 366.473 29.6C 369.033 32.36 370.313 36.16 370.313 41C 370.313 45.84 369.033 49.66 366.473 52.46C 363.953 55.22 360.473 56.6 356.033 56.6C 351.593 56.6 348.093 55.22 345.533 52.46C 343.013 49.66 341.753 45.84 341.753 41C 341.753 36.16 343.013 32.36 345.533 29.6C 348.093 26.8 351.593 25.4 356.033 25.4ZM 356.033 27.98C 352.513 27.98 349.753 29.14 347.753 31.46C 345.753 33.78 344.753 36.96 344.753 41C 344.753 45.04 345.753 48.22 347.753 50.54C 349.753 52.86 352.513 54.02 356.033 54.02C 359.553 54.02 362.313 52.86 364.313 50.54C 366.313 48.22 367.313 45.04 367.313 41C 367.313 36.96 366.313 33.78 364.313 31.46C 362.313 29.14 359.553 27.98 356.033 27.98ZM 390.044 56.6C 387.004 56.6 384.364 56 382.124 54.8C 379.884 53.6 378.344 51.86 377.504 49.58L 379.964 47.96C 380.564 49.96 381.784 51.46 383.624 52.46C 385.464 53.46 387.724 53.96 390.404 53.96C 393.124 53.96 395.244 53.44 396.764 52.4C 398.324 51.36 399.104 49.98 399.104 48.26C 399.104 46.78 398.444 45.6 397.124 44.72C 395.804 43.84 393.484 43.1 390.164 42.5C 385.964 41.74 383.004 40.72 381.284 39.44C 379.564 38.16 378.704 36.34 378.704 33.98C 378.704 32.42 379.184 30.98 380.144 29.66C 381.104 28.34 382.464 27.3 384.224 26.54C 385.984 25.78 387.984 25.4 390.224 25.4C 393.384 25.4 395.904 26 397.784 27.2C 399.704 28.4 401.024 30.24 401.744 32.72L 399.164 34.22C 398.044 30.1 395.064 28.04 390.224 28.04C 388.624 28.04 387.164 28.3 385.844 28.82C 384.564 29.34 383.544 30.04 382.784 30.92C 382.064 31.76 381.704 32.68 381.704 33.68C 381.704 35.32 382.384 36.6 383.744 37.52C 385.104 38.44 387.504 39.2 390.944 39.8C 395.024 40.48 397.904 41.46 399.584 42.74C 401.264 44.02 402.104 45.82 402.104 48.14C 402.104 50.7 401.004 52.76 398.804 54.32C 396.644 55.84 393.724 56.6 390.044 56.6Z"/>
<path id="path6_fill" d="M 30 0L 55.9808 22.5L 4.01924 22.5L 30 0Z"/>
</defs>
</svg>
